<svg xmlns="http://www.w3.org/2000/svg" viewBox="0 0 800 500" role="img" aria-label="Албания · основна снимка">
  <defs>
    <linearGradient id="sky" x1="0" y1="0" x2="0" y2="1">
      <stop offset="0%" stop-color="#38bdf8"/>
      <stop offset="100%" stop-color="#bae6fd"/>
    </linearGradient>
    <linearGradient id="sea" x1="0" y1="0" x2="1" y2="0">
      <stop offset="0%" stop-color="#0891b2"/>
      <stop offset="100%" stop-color="#06b6d4"/>
    </linearGradient>
    <linearGradient id="cliff" x1="0" y1="0" x2="0" y2="1">
      <stop offset="0%" stop-color="#65a30d"/>
      <stop offset="100%" stop-color="#365314"/>
    </linearGradient>
  </defs>
  <rect width="800" height="500" fill="url(#sky)"/>
  <circle cx="680" cy="75" r="42" fill="#fde047" opacity="0.95"/>
  <ellipse cx="150" cy="95" rx="80" ry="24" fill="#fff" opacity="0.7"/>
  <path d="M0 280 L800 280 L800 500 L0 500 Z" fill="url(#sea)"/>
  <path d="M0 200 L180 120 L320 180 L480 100 L620 160 L800 130 L800 280 L0 280 Z" fill="url(#cliff)"/>
  <path d="M0 200 L180 120 L320 180 L480 100 L620 160 L800 130 L800 200 L0 200 Z" fill="#4d7c0f" opacity="0.5"/>
  <path d="M280 280 Q340 320 400 300 Q460 280 520 310 Q580 340 640 295 L640 280 Z" fill="#fde68a" opacity="0.85"/>
  <ellipse cx="400" cy="318" rx="55" ry="10" fill="#0e7490" opacity="0.25"/>
  <g transform="translate(350, 248)">
    <circle cx="50" cy="18" r="22" fill="#16a34a"/>
    <rect x="44" y="32" width="12" height="28" fill="#78350f"/>
  </g>
  <g transform="translate(520, 210)">
    <rect x="0" y="30" width="50" height="40" rx="3" fill="#fef08a"/>
    <path d="M0 30 L25 8 L50 30 Z" fill="#dc2626"/>
    <rect x="10" y="42" width="12" height="14" fill="#38bdf8" opacity="0.6"/>
    <rect x="28" y="42" width="12" height="14" fill="#38bdf8" opacity="0.6"/>
  </g>
  <text x="400" y="470" text-anchor="middle" fill="#134e4a" font-family="system-ui,sans-serif" font-size="22" font-weight="600">Албания · основна снимка</text>
</svg>
