<svg xmlns="http://www.w3.org/2000/svg" viewBox="0 0 800 500" role="img" aria-label="Албания · втора снимка">
  <defs>
    <linearGradient id="sky" x1="0" y1="0" x2="0" y2="1">
      <stop offset="0%" stop-color="#7dd3fc"/>
      <stop offset="100%" stop-color="#e0f2fe"/>
    </linearGradient>
    <linearGradient id="sea" x1="0" y1="0" x2="0" y2="1">
      <stop offset="0%" stop-color="#0e7490"/>
      <stop offset="100%" stop-color="#155e75"/>
    </linearGradient>
  </defs>
  <rect width="800" height="500" fill="url(#sky)"/>
  <path d="M0 340 Q200 320 400 335 T800 325 L800 500 L0 500 Z" fill="url(#sea)"/>
  <path d="M0 340 Q200 320 400 335 T800 325" fill="none" stroke="#67e8f9" stroke-width="2" opacity="0.4"/>
  <path d="M60 340 L800 340" fill="none" stroke="#fcd34d" stroke-width="4" opacity="0.6"/>
  <path d="M0 300 L120 260 L200 280 L280 240 L360 270 L440 220 L520 255 L600 210 L700 245 L800 220 L800 340 L0 340 Z" fill="#78716c"/>
  <path d="M0 300 L120 260 L200 280 L280 240 L360 270 L440 220 L520 255 L600 210 L700 245 L800 220 L800 300 L0 300 Z" fill="#a8a29e" opacity="0.5"/>
  <g transform="translate(180, 195)">
    <rect x="20" y="50" width="12" height="55" fill="#d6d3d1"/>
    <rect x="50" y="35" width="14" height="70" fill="#e7e5e4"/>
    <rect x="82" y="55" width="10" height="50" fill="#d6d3d1"/>
    <path d="M15 50 L26 20 L37 50 Z" fill="#a8a29e"/>
    <path d="M43 35 L57 5 L71 35 Z" fill="#d6d3d1"/>
    <path d="M77 55 L87 30 L97 55 Z" fill="#a8a29e"/>
    <rect x="0" y="105" width="110" height="8" fill="#57534e"/>
  </g>
  <g transform="translate(480, 175)">
    <ellipse cx="60" cy="95" rx="50" ry="12" fill="#166534" opacity="0.3"/>
    <rect x="40" y="50" width="40" height="45" fill="#fef08a"/>
    <path d="M40 50 L60 25 L80 50 Z" fill="#b45309"/>
    <rect x="52" y="62" width="16" height="20" fill="#92400e"/>
  </g>
  <circle cx="650" cy="100" r="35" fill="#fde047" opacity="0.9"/>
  <text x="400" y="470" text-anchor="middle" fill="#0c4a6e" font-family="system-ui,sans-serif" font-size="22" font-weight="600">Албания · втора снимка</text>
</svg>
