<svg xmlns="http://www.w3.org/2000/svg" viewBox="0 0 800 500" role="img" aria-label="Велико Търново">
  <defs>
    <linearGradient id="sky" x1="0" y1="0" x2="1" y2="1">
      <stop offset="0%" stop-color="#7c2d12"/>
      <stop offset="55%" stop-color="#f59e0b"/>
      <stop offset="100%" stop-color="#f59e0b" stop-opacity="0.85"/>
    </linearGradient>
    <linearGradient id="haze" x1="0" y1="0.35" x2="0" y2="1">
      <stop offset="0%" stop-color="#ffffff" stop-opacity="0"/>
      <stop offset="45%" stop-color="#ffffff" stop-opacity="0.06"/>
      <stop offset="100%" stop-color="#0f172a" stop-opacity="0.22"/>
    </linearGradient>
    <linearGradient id="sea" x1="0" y1="0" x2="0" y2="1">
      <stop offset="0%" stop-color="#0c4a6e" stop-opacity="0.35"/>
      <stop offset="100%" stop-color="#082f49" stop-opacity="0.65"/>
    </linearGradient>
    <linearGradient id="sand" x1="0" y1="0" x2="0" y2="1">
      <stop offset="0%" stop-color="#fef3c7" stop-opacity="0.25"/>
      <stop offset="100%" stop-color="#d97706" stop-opacity="0.15"/>
    </linearGradient>
    <linearGradient id="scrim" x1="0" y1="0.55" x2="0" y2="1">
      <stop offset="0%" stop-color="#000000" stop-opacity="0"/>
      <stop offset="100%" stop-color="#000000" stop-opacity="0.45"/>
    </linearGradient>
    <radialGradient id="sun" cx="0.78" cy="0.18" r="0.28">
      <stop offset="0%" stop-color="#fff7ed" stop-opacity="0.55"/>
      <stop offset="55%" stop-color="#fde68a" stop-opacity="0.18"/>
      <stop offset="100%" stop-color="#fde68a" stop-opacity="0"/>
    </radialGradient>
  </defs>
  <rect width="800" height="500" fill="url(#sky)"/>
  <rect width="800" height="500" fill="url(#sun)"/>
  <rect width="800" height="500" fill="url(#haze)"/>
  <ellipse cx="140" cy="95" rx="95" ry="22" fill="#ffffff" opacity="0.1"/>
  <ellipse cx="210" cy="88" rx="60" ry="16" fill="#ffffff" opacity="0.08"/>
  <ellipse cx="520" cy="72" rx="110" ry="20" fill="#ffffff" opacity="0.09"/>
  <ellipse cx="640" cy="80" rx="70" ry="15" fill="#ffffff" opacity="0.07"/>
  <path d="M0 310 C120 250 220 235 340 255 S520 220 640 245 S760 270 800 290 L800 500 L0 500 Z" fill="#0f172a" opacity="0.12"/>
  <path d="M0 350 C160 300 300 285 420 305 S620 290 800 330 L800 500 L0 500 Z" fill="#0f172a" opacity="0.16"/>
  <rect x="0" y="365" width="800" height="135" fill="url(#sea)"/>
  <path d="M0 373 C120 361 240 375 400 369 S680 359 800 373" stroke="#e0f2fe" stroke-width="1.2" fill="none" opacity="0.22"/>
  <path d="M0 393 C160 381 320 399 480 387 S720 395 800 389" stroke="#e0f2fe" stroke-width="0.8" fill="none" opacity="0.14"/>
  <path d="M0 417 C200 407 400 423 600 411 S760 419 800 415" stroke="#bae6fd" stroke-width="0.6" fill="none" opacity="0.1"/>
  <path d="M0 365 C90 350 170 330 250 318 C300 268 350 235 395 218 C420 198 445 205 468 225 C505 210 540 232 565 248 C590 236 615 250 635 268 C670 255 710 275 800 300 L800 365 L0 365 Z" fill="#0f172a" opacity="0.5"/>
  <path d="M395 218 C405 188 418 168 430 155 C438 175 445 195 452 210 C442 205 430 205 418 212 Z" fill="#0f172a" opacity="0.55"/>
  <rect width="800" height="500" fill="url(#scrim)"/>
  <text x="400" y="462" text-anchor="middle" fill="#ffffff" font-family="system-ui,sans-serif" font-size="34" font-weight="600" letter-spacing="0.02em">Велико Търново</text>
</svg>