<svg xmlns="http://www.w3.org/2000/svg" viewBox="0 0 800 500" role="img" aria-label="Крайбрежна алея">
  <defs>
    <linearGradient id="sky" x1="0" y1="0" x2="1" y2="1">
      <stop offset="0%" stop-color="#0369a1"/>
      <stop offset="55%" stop-color="#fbbf24"/>
      <stop offset="100%" stop-color="#fbbf24" stop-opacity="0.85"/>
    </linearGradient>
    <linearGradient id="haze" x1="0" y1="0.35" x2="0" y2="1">
      <stop offset="0%" stop-color="#ffffff" stop-opacity="0"/>
      <stop offset="45%" stop-color="#ffffff" stop-opacity="0.06"/>
      <stop offset="100%" stop-color="#0f172a" stop-opacity="0.22"/>
    </linearGradient>
    <linearGradient id="sea" x1="0" y1="0" x2="0" y2="1">
      <stop offset="0%" stop-color="#0c4a6e" stop-opacity="0.35"/>
      <stop offset="100%" stop-color="#082f49" stop-opacity="0.65"/>
    </linearGradient>
    <linearGradient id="sand" x1="0" y1="0" x2="0" y2="1">
      <stop offset="0%" stop-color="#fef3c7" stop-opacity="0.25"/>
      <stop offset="100%" stop-color="#d97706" stop-opacity="0.15"/>
    </linearGradient>
    <linearGradient id="scrim" x1="0" y1="0.55" x2="0" y2="1">
      <stop offset="0%" stop-color="#000000" stop-opacity="0"/>
      <stop offset="100%" stop-color="#000000" stop-opacity="0.45"/>
    </linearGradient>
    <radialGradient id="sun" cx="0.78" cy="0.18" r="0.28">
      <stop offset="0%" stop-color="#fff7ed" stop-opacity="0.55"/>
      <stop offset="55%" stop-color="#fde68a" stop-opacity="0.18"/>
      <stop offset="100%" stop-color="#fde68a" stop-opacity="0"/>
    </radialGradient>
  </defs>
  <rect width="800" height="500" fill="url(#sky)"/>
  <rect width="800" height="500" fill="url(#sun)"/>
  <rect width="800" height="500" fill="url(#haze)"/>
  <ellipse cx="140" cy="95" rx="95" ry="22" fill="#ffffff" opacity="0.1"/>
  <ellipse cx="210" cy="88" rx="60" ry="16" fill="#ffffff" opacity="0.08"/>
  <ellipse cx="520" cy="72" rx="110" ry="20" fill="#ffffff" opacity="0.09"/>
  <ellipse cx="640" cy="80" rx="70" ry="15" fill="#ffffff" opacity="0.07"/>
  <rect x="0" y="305" width="800" height="195" fill="url(#sea)"/>
  <path d="M0 313 C120 301 240 315 400 309 S680 299 800 313" stroke="#e0f2fe" stroke-width="1.2" fill="none" opacity="0.22"/>
  <path d="M0 333 C160 321 320 339 480 327 S720 335 800 329" stroke="#e0f2fe" stroke-width="0.8" fill="none" opacity="0.14"/>
  <path d="M0 357 C200 347 400 363 600 351 S760 359 800 355" stroke="#bae6fd" stroke-width="0.6" fill="none" opacity="0.1"/>
  <path d="M0 338 C180 325 360 332 540 322 S760 330 800 325" stroke="#f8fafc" stroke-width="2.5" opacity="0.2" fill="none"/>
  <path d="M0 348 C200 338 400 345 600 336 S760 342 800 338" stroke="#f8fafc" stroke-width="1" opacity="0.1" fill="none"/>
  <ellipse cx="90" cy="319.25" rx="31.5" ry="19.25" fill="#0f172a" opacity="0.2"/>
  <rect x="87" y="328" width="6" height="12.25" fill="#0f172a" opacity="0.18"/>
  <ellipse cx="180" cy="316.1" rx="37.800000000000004" ry="23.1" fill="#0f172a" opacity="0.2"/>
  <rect x="177" y="326.6" width="6" height="14.7" fill="#0f172a" opacity="0.18"/>
  <ellipse cx="620" cy="317.9" rx="34.2" ry="20.900000000000002" fill="#0f172a" opacity="0.2"/>
  <rect x="617" y="327.4" width="6" height="13.299999999999999" fill="#0f172a" opacity="0.18"/>
  <ellipse cx="710" cy="320.6" rx="28.8" ry="17.6" fill="#0f172a" opacity="0.2"/>
  <rect x="707" y="328.6" width="6" height="11.2" fill="#0f172a" opacity="0.18"/>
  <path d="M0 352 C140 334 280 358 420 342 S700 356 800 346 L800 500 L0 500 Z" fill="url(#sand)"/>
  <rect width="800" height="500" fill="url(#scrim)"/>
  <text x="400" y="468" text-anchor="middle" fill="#ffffff" font-family="system-ui,sans-serif" font-size="26" font-weight="600" letter-spacing="0.02em">Крайбрежна алея</text>
</svg>