<svg xmlns="http://www.w3.org/2000/svg" viewBox="0 0 800 500" role="img" aria-label="Слънчев Бряг">
  <defs>
    <linearGradient id="sky" x1="1" y1="0" x2="0" y2="1">
      <stop offset="0%" stop-color="#0369a1"/>
      <stop offset="55%" stop-color="#fbbf24"/>
      <stop offset="100%" stop-color="#fbbf24" stop-opacity="0.85"/>
    </linearGradient>
    <linearGradient id="haze" x1="0" y1="0.35" x2="0" y2="1">
      <stop offset="0%" stop-color="#ffffff" stop-opacity="0"/>
      <stop offset="45%" stop-color="#ffffff" stop-opacity="0.06"/>
      <stop offset="100%" stop-color="#0f172a" stop-opacity="0.22"/>
    </linearGradient>
    <linearGradient id="sea" x1="0" y1="0" x2="0" y2="1">
      <stop offset="0%" stop-color="#0c4a6e" stop-opacity="0.35"/>
      <stop offset="100%" stop-color="#082f49" stop-opacity="0.65"/>
    </linearGradient>
    <linearGradient id="sand" x1="0" y1="0" x2="0" y2="1">
      <stop offset="0%" stop-color="#fef3c7" stop-opacity="0.25"/>
      <stop offset="100%" stop-color="#d97706" stop-opacity="0.15"/>
    </linearGradient>
    <linearGradient id="scrim" x1="0" y1="0.55" x2="0" y2="1">
      <stop offset="0%" stop-color="#000000" stop-opacity="0"/>
      <stop offset="100%" stop-color="#000000" stop-opacity="0.45"/>
    </linearGradient>
    <radialGradient id="sun" cx="0.78" cy="0.18" r="0.28">
      <stop offset="0%" stop-color="#fff7ed" stop-opacity="0.55"/>
      <stop offset="55%" stop-color="#fde68a" stop-opacity="0.18"/>
      <stop offset="100%" stop-color="#fde68a" stop-opacity="0"/>
    </radialGradient>
  </defs>
  <rect width="800" height="500" fill="url(#sky)"/>
  <rect width="800" height="500" fill="url(#sun)"/>
  <rect width="800" height="500" fill="url(#haze)"/>
  <ellipse cx="140" cy="95" rx="95" ry="22" fill="#ffffff" opacity="0.1"/>
  <ellipse cx="210" cy="88" rx="60" ry="16" fill="#ffffff" opacity="0.08"/>
  <ellipse cx="520" cy="72" rx="110" ry="20" fill="#ffffff" opacity="0.09"/>
  <ellipse cx="640" cy="80" rx="70" ry="15" fill="#ffffff" opacity="0.07"/>
  <rect x="0" y="315" width="800" height="185" fill="url(#sea)"/>
  <path d="M0 323 C120 311 240 325 400 319 S680 309 800 323" stroke="#e0f2fe" stroke-width="1.2" fill="none" opacity="0.22"/>
  <path d="M0 343 C160 331 320 349 480 337 S720 345 800 339" stroke="#e0f2fe" stroke-width="0.8" fill="none" opacity="0.14"/>
  <path d="M0 367 C200 357 400 373 600 361 S760 369 800 365" stroke="#bae6fd" stroke-width="0.6" fill="none" opacity="0.1"/>
  <path d="M180 315 C220 300 260 292 300 295 C320 275 340 258 360 245 C375 262 388 280 400 295 C430 288 460 282 490 288 C510 270 525 255 540 242 C555 258 570 275 585 292 C620 285 660 290 700 305 L700 315 Z" fill="#0f172a" opacity="0.48"/>
  <path d="M350 245 C358 222 368 205 378 192 C388 208 395 225 400 242 C390 238 378 238 368 242 Z" fill="#0f172a" opacity="0.52"/>
  <path d="M530 242 C538 218 548 200 558 186 C568 202 575 220 580 238 C570 234 558 234 548 238 Z" fill="#0f172a" opacity="0.52"/>
  <path d="M0 355 C140 337 280 361 420 345 S700 359 800 349 L800 500 L0 500 Z" fill="url(#sand)"/>
  <rect width="800" height="500" fill="url(#scrim)"/>
  <text x="400" y="462" text-anchor="middle" fill="#ffffff" font-family="system-ui,sans-serif" font-size="34" font-weight="600" letter-spacing="0.02em">Слънчев Бряг</text>
</svg>