<svg xmlns="http://www.w3.org/2000/svg" viewBox="0 0 800 500" role="img" aria-label="Арбанаси">
  <defs>
    <linearGradient id="sky" x1="0" y1="0" x2="1" y2="1">
      <stop offset="0%" stop-color="#7c2d12"/>
      <stop offset="55%" stop-color="#f59e0b"/>
      <stop offset="100%" stop-color="#f59e0b" stop-opacity="0.85"/>
    </linearGradient>
    <linearGradient id="haze" x1="0" y1="0.35" x2="0" y2="1">
      <stop offset="0%" stop-color="#ffffff" stop-opacity="0"/>
      <stop offset="45%" stop-color="#ffffff" stop-opacity="0.06"/>
      <stop offset="100%" stop-color="#0f172a" stop-opacity="0.22"/>
    </linearGradient>
    <linearGradient id="sea" x1="0" y1="0" x2="0" y2="1">
      <stop offset="0%" stop-color="#0c4a6e" stop-opacity="0.35"/>
      <stop offset="100%" stop-color="#082f49" stop-opacity="0.65"/>
    </linearGradient>
    <linearGradient id="sand" x1="0" y1="0" x2="0" y2="1">
      <stop offset="0%" stop-color="#fef3c7" stop-opacity="0.25"/>
      <stop offset="100%" stop-color="#d97706" stop-opacity="0.15"/>
    </linearGradient>
    <linearGradient id="scrim" x1="0" y1="0.55" x2="0" y2="1">
      <stop offset="0%" stop-color="#000000" stop-opacity="0"/>
      <stop offset="100%" stop-color="#000000" stop-opacity="0.45"/>
    </linearGradient>
    <radialGradient id="sun" cx="0.78" cy="0.18" r="0.28">
      <stop offset="0%" stop-color="#fff7ed" stop-opacity="0.55"/>
      <stop offset="55%" stop-color="#fde68a" stop-opacity="0.18"/>
      <stop offset="100%" stop-color="#fde68a" stop-opacity="0"/>
    </radialGradient>
  </defs>
  <rect width="800" height="500" fill="url(#sky)"/>
  <rect width="800" height="500" fill="url(#sun)"/>
  <rect width="800" height="500" fill="url(#haze)"/>
  <ellipse cx="140" cy="95" rx="95" ry="22" fill="#ffffff" opacity="0.1"/>
  <ellipse cx="210" cy="88" rx="60" ry="16" fill="#ffffff" opacity="0.08"/>
  <ellipse cx="520" cy="72" rx="110" ry="20" fill="#ffffff" opacity="0.09"/>
  <ellipse cx="640" cy="80" rx="70" ry="15" fill="#ffffff" opacity="0.07"/>
  <path d="M0 300 C200 250 380 240 560 265 S740 255 800 275 L800 500 L0 500 Z" fill="#0f172a" opacity="0.13"/>
  <path d="M0 340 C160 305 320 295 480 315 S680 300 800 335 L800 500 L0 500 Z" fill="#0f172a" opacity="0.17"/>
  <path d="M0 340 C200 320 340 305 420 295 C455 268 470 248 480 230 C490 248 505 270 525 292 C590 285 660 300 800 325 L800 340 Z" fill="#0f172a" opacity="0.44"/>
  <path d="M468 230 C478 205 488 188 498 175 C508 192 515 210 520 228 C505 222 488 222 472 228 Z" fill="#0f172a" opacity="0.5"/>
  <ellipse cx="150" cy="321.1" rx="37.800000000000004" ry="23.1" fill="#0f172a" opacity="0.2"/>
  <rect x="147" y="331.6" width="6" height="14.7" fill="#0f172a" opacity="0.18"/>
  <ellipse cx="220" cy="315.25" rx="49.5" ry="30.250000000000004" fill="#0f172a" opacity="0.2"/>
  <rect x="217" y="329" width="6" height="19.25" fill="#0f172a" opacity="0.18"/>
  <ellipse cx="680" cy="318.4" rx="43.2" ry="26.400000000000002" fill="#0f172a" opacity="0.2"/>
  <rect x="677" y="330.4" width="6" height="16.799999999999997" fill="#0f172a" opacity="0.18"/>
  <ellipse cx="740" cy="322.9" rx="34.2" ry="20.900000000000002" fill="#0f172a" opacity="0.2"/>
  <rect x="737" y="332.4" width="6" height="13.299999999999999" fill="#0f172a" opacity="0.18"/>
  <rect width="800" height="500" fill="url(#scrim)"/>
  <text x="400" y="468" text-anchor="middle" fill="#ffffff" font-family="system-ui,sans-serif" font-size="26" font-weight="600" letter-spacing="0.02em">Арбанаси</text>
</svg>