<svg xmlns="http://www.w3.org/2000/svg" viewBox="0 0 800 500" role="img" aria-label="Фарът на Александруполи">
  <defs>
    <linearGradient id="sky" x1="0" y1="0" x2="1" y2="1">
      <stop offset="0%" stop-color="#0e7490"/>
      <stop offset="55%" stop-color="#fde68a"/>
      <stop offset="100%" stop-color="#fde68a" stop-opacity="0.85"/>
    </linearGradient>
    <linearGradient id="haze" x1="0" y1="0.35" x2="0" y2="1">
      <stop offset="0%" stop-color="#ffffff" stop-opacity="0"/>
      <stop offset="45%" stop-color="#ffffff" stop-opacity="0.06"/>
      <stop offset="100%" stop-color="#0f172a" stop-opacity="0.22"/>
    </linearGradient>
    <linearGradient id="sea" x1="0" y1="0" x2="0" y2="1">
      <stop offset="0%" stop-color="#0c4a6e" stop-opacity="0.35"/>
      <stop offset="100%" stop-color="#082f49" stop-opacity="0.65"/>
    </linearGradient>
    <linearGradient id="sand" x1="0" y1="0" x2="0" y2="1">
      <stop offset="0%" stop-color="#fef3c7" stop-opacity="0.25"/>
      <stop offset="100%" stop-color="#d97706" stop-opacity="0.15"/>
    </linearGradient>
    <linearGradient id="scrim" x1="0" y1="0.55" x2="0" y2="1">
      <stop offset="0%" stop-color="#000000" stop-opacity="0"/>
      <stop offset="100%" stop-color="#000000" stop-opacity="0.45"/>
    </linearGradient>
    <radialGradient id="sun" cx="0.78" cy="0.18" r="0.28">
      <stop offset="0%" stop-color="#fff7ed" stop-opacity="0.55"/>
      <stop offset="55%" stop-color="#fde68a" stop-opacity="0.18"/>
      <stop offset="100%" stop-color="#fde68a" stop-opacity="0"/>
    </radialGradient>
  </defs>
  <rect width="800" height="500" fill="url(#sky)"/>
  <rect width="800" height="500" fill="url(#sun)"/>
  <rect width="800" height="500" fill="url(#haze)"/>
  <ellipse cx="140" cy="95" rx="95" ry="22" fill="#ffffff" opacity="0.1"/>
  <ellipse cx="210" cy="88" rx="60" ry="16" fill="#ffffff" opacity="0.08"/>
  <ellipse cx="520" cy="72" rx="110" ry="20" fill="#ffffff" opacity="0.09"/>
  <ellipse cx="640" cy="80" rx="70" ry="15" fill="#ffffff" opacity="0.07"/>
  <rect x="0" y="310" width="800" height="190" fill="url(#sea)"/>
  <path d="M0 318 C120 306 240 320 400 314 S680 304 800 318" stroke="#e0f2fe" stroke-width="1.2" fill="none" opacity="0.22"/>
  <path d="M0 338 C160 326 320 344 480 332 S720 340 800 334" stroke="#e0f2fe" stroke-width="0.8" fill="none" opacity="0.14"/>
  <path d="M0 362 C200 352 400 368 600 356 S760 364 800 360" stroke="#bae6fd" stroke-width="0.6" fill="none" opacity="0.1"/>
  <path d="M0 348 C140 330 280 354 420 338 S700 352 800 342 L800 500 L0 500 Z" fill="url(#sand)"/>
  <path d="M0 320 C200 300 400 295 600 310 S760 305 800 318 L800 348 L0 348 Z" fill="#0f172a" opacity="0.12"/>
  <path d="M0 348 C180 335 340 330 500 338 C520 310 540 275 555 235 C570 275 585 310 605 338 C680 332 750 340 800 348 L800 348 Z" fill="#0f172a" opacity="0.4"/>
  <path d="M555 235 L548 195 L555 155 L562 195 Z M555 155 L540 185 L570 185 Z" fill="#0f172a" opacity="0.48"/>
  <path d="M555 195 L780 250" stroke="#fde68a" stroke-width="1.5" opacity="0.12" fill="none"/>
  <path d="M555 195 L720 220" stroke="#fde68a" stroke-width="0.8" opacity="0.08" fill="none"/>
  <rect width="800" height="500" fill="url(#scrim)"/>
  <text x="400" y="468" text-anchor="middle" fill="#ffffff" font-family="system-ui,sans-serif" font-size="26" font-weight="600" letter-spacing="0.02em">Фарът на Александруполи</text>
</svg>