<svg xmlns="http://www.w3.org/2000/svg" viewBox="0 0 800 500" role="img" aria-label="Фарът в Александруполи">
  <defs>
    <linearGradient id="alexSky" x1="0" y1="0" x2="0" y2="1">
      <stop offset="0%" stop-color="#38bdf8"/>
      <stop offset="100%" stop-color="#e0f2fe"/>
    </linearGradient>
    <linearGradient id="alexSea" x1="0" y1="0" x2="1" y2="0">
      <stop offset="0%" stop-color="#0369a1"/>
      <stop offset="100%" stop-color="#0891b2"/>
    </linearGradient>
  </defs>
  <rect width="800" height="500" fill="url(#alexSky)"/>
  <path d="M0 320 L800 320 L800 500 L0 500 Z" fill="#cbd5e1"/>
  <path d="M0 340 Q200 330 400 338 T800 332 L800 500 L0 500 Z" fill="url(#alexSea)"/>
  <g transform="translate(330, 80)">
    <rect x="58" y="170" width="24" height="90" fill="#f8fafc"/>
    <rect x="52" y="160" width="36" height="14" rx="2" fill="#e2e8f0"/>
    <rect x="48" y="120" width="44" height="42" rx="3" fill="#fff"/>
    <rect x="54" y="80" width="32" height="42" fill="#f1f5f9"/>
    <rect x="50" y="50" width="40" height="32" fill="#fff"/>
    <path d="M48 50 L70 18 L92 50 Z" fill="#dc2626"/>
    <rect x="64" y="200" width="12" height="24" fill="#0f172a" opacity="0.15"/>
    <circle cx="70" cy="95" r="10" fill="#fef08a" opacity="0.9"/>
    <circle cx="70" cy="95" r="16" fill="#fde047" opacity="0.25"/>
  </g>
  <g transform="translate(80, 300)">
    <rect x="0" y="0" width="640" height="12" rx="2" fill="#94a3b8"/>
    <rect x="20" y="12" width="8" height="28" fill="#64748b"/>
    <rect x="180" y="12" width="8" height="28" fill="#64748b"/>
    <rect x="340" y="12" width="8" height="28" fill="#64748b"/>
    <rect x="500" y="12" width="8" height="28" fill="#64748b"/>
    <rect x="620" y="12" width="8" height="28" fill="#64748b"/>
  </g>
  <g transform="translate(140, 285)">
    <rect x="0" y="18" width="48" height="22" rx="3" fill="#fff" opacity="0.85"/>
    <rect x="8" y="26" width="12" height="10" fill="#38bdf8" opacity="0.5"/>
    <rect x="28" y="26" width="12" height="10" fill="#38bdf8" opacity="0.5"/>
    <rect x="16" y="8" width="16" height="12" fill="#dc2626"/>
  </g>
  <g transform="translate(520, 278)">
    <path d="M0 30 L20 10 L40 30 L35 30 L35 42 L5 42 L5 30 Z" fill="#1e3a5f"/>
    <rect x="12" y="18" width="16" height="8" fill="#f8fafc"/>
  </g>
  <ellipse cx="200" cy="355" rx="30" ry="8" fill="#0c4a6e" opacity="0.3"/>
  <ellipse cx="580" cy="358" rx="24" ry="7" fill="#0c4a6e" opacity="0.3"/>
  <text x="400" y="470" text-anchor="middle" fill="#0c4a6e" font-family="system-ui,sans-serif" font-size="22" font-weight="600">Александруполи</text>
</svg>
