<svg xmlns="http://www.w3.org/2000/svg" viewBox="0 0 800 500" role="img" aria-label="Антична Маронея">
  <defs>
    <linearGradient id="marSky" x1="0" y1="0" x2="0" y2="1">
      <stop offset="0%" stop-color="#fdba74"/>
      <stop offset="55%" stop-color="#fef3c7"/>
      <stop offset="100%" stop-color="#d9f99d"/>
    </linearGradient>
    <linearGradient id="marHill" x1="0" y1="0" x2="0" y2="1">
      <stop offset="0%" stop-color="#84cc16"/>
      <stop offset="100%" stop-color="#4d7c0f"/>
    </linearGradient>
  </defs>
  <rect width="800" height="500" fill="url(#marSky)"/>
  <path d="M0 360 Q200 280 400 310 T800 290 L800 500 L0 500 Z" fill="url(#marHill)"/>
  <path d="M0 390 Q250 350 400 370 T800 355 L800 500 L0 500 Z" fill="#65a30d" opacity="0.7"/>
  <g transform="translate(220, 210)">
    <ellipse cx="180" cy="150" rx="170" ry="28" fill="#78716c" opacity="0.35"/>
    <path d="M20 150 Q60 70 100 90 Q140 110 160 80 Q200 50 240 90 Q280 130 320 100 Q340 85 360 150 Z" fill="#a8a29e"/>
    <path d="M40 150 L40 120 Q80 95 120 110 Q160 125 200 100 Q240 75 280 105 Q320 135 340 150 Z" fill="#d6d3d1"/>
    <rect x="55" y="118" width="14" height="32" fill="#e7e5e4"/>
    <rect x="95" y="108" width="14" height="42" fill="#e7e5e4"/>
    <rect x="135" y="112" width="14" height="38" fill="#e7e5e4"/>
    <rect x="175" y="100" width="14" height="50" fill="#e7e5e4"/>
    <rect x="215" y="108" width="14" height="42" fill="#e7e5e4"/>
    <rect x="255" y="115" width="14" height="35" fill="#e7e5e4"/>
    <rect x="295" y="120" width="14" height="30" fill="#e7e5e4"/>
    <rect x="48" y="112" width="270" height="10" rx="2" fill="#fafaf9"/>
    <rect x="70" y="95" width="230" height="10" rx="2" fill="#f5f5f4"/>
    <rect x="110" y="78" width="150" height="10" rx="2" fill="#fafaf9"/>
  </g>
  <g transform="translate(120, 330)">
    <rect x="0" y="0" width="28" height="40" fill="#d6d3d1"/>
    <rect x="36" y="12" width="20" height="28" fill="#a8a29e"/>
    <rect x="68" y="6" width="24" height="34" fill="#d6d3d1"/>
    <rect x="104" y="18" width="16" height="22" fill="#a8a29e"/>
  </g>
  <g transform="translate(560, 120)">
    <ellipse cx="22" cy="78" rx="18" ry="6" fill="#365314" opacity="0.35"/>
    <rect x="16" y="42" width="12" height="36" fill="#78350f"/>
    <circle cx="22" cy="32" r="24" fill="#4d7c0f"/>
    <circle cx="8" cy="28" r="14" fill="#65a30d"/>
  </g>
  <g transform="translate(90, 150)">
    <path d="M0 60 L30 20 L60 60 Z" fill="#7c2d12" opacity="0.7"/>
    <rect x="10" y="60" width="40" height="30" fill="#92400e" opacity="0.6"/>
    <ellipse cx="30" cy="92" rx="28" ry="8" fill="#451a03" opacity="0.2"/>
  </g>
  <g transform="translate(620, 360)">
    <ellipse cx="30" cy="28" rx="28" ry="8" fill="#7f1d1d" opacity="0.25"/>
    <rect x="18" y="10" width="24" height="18" rx="8" fill="#991b1b"/>
    <rect x="12" y="28" width="8" height="14" fill="#7f1d1d"/>
    <rect x="40" y="28" width="8" height="14" fill="#7f1d1d"/>
    <path d="M22 10 Q30 0 38 10" fill="none" stroke="#7f1d1d" stroke-width="2"/>
  </g>
  <text x="400" y="470" text-anchor="middle" fill="#365314" font-family="system-ui,sans-serif" font-size="22" font-weight="600">Маронея</text>
</svg>
