<svg xmlns="http://www.w3.org/2000/svg" viewBox="0 0 800 500" role="img" aria-label="Плаж край Макри">
  <defs>
    <linearGradient id="beachSky" x1="0" y1="0" x2="0" y2="1">
      <stop offset="0%" stop-color="#7dd3fc"/>
      <stop offset="100%" stop-color="#bae6fd"/>
    </linearGradient>
    <linearGradient id="beachSea" x1="0" y1="0" x2="0" y2="1">
      <stop offset="0%" stop-color="#06b6d4"/>
      <stop offset="100%" stop-color="#0e7490"/>
    </linearGradient>
    <linearGradient id="beachSand" x1="0" y1="0" x2="0" y2="1">
      <stop offset="0%" stop-color="#fde68a"/>
      <stop offset="100%" stop-color="#fbbf24"/>
    </linearGradient>
  </defs>
  <rect width="800" height="500" fill="url(#beachSky)"/>
  <circle cx="680" cy="80" r="40" fill="#fde047"/>
  <path d="M0 250 Q120 235 240 248 Q360 262 480 242 Q600 222 800 255 L800 340 L0 340 Z" fill="url(#beachSea)"/>
  <path d="M0 340 C120 320 260 355 400 330 C540 305 660 350 800 325 L800 500 L0 500 Z" fill="url(#beachSand)"/>
  <path d="M0 252 Q200 268 400 255 T800 248" fill="none" stroke="#fff" stroke-width="4" opacity="0.45"/>
  <g transform="translate(100, 200)">
    <ellipse cx="28" cy="88" rx="22" ry="7" fill="#14532d" opacity="0.3"/>
    <rect x="22" y="50" width="12" height="38" fill="#92400e"/>
    <circle cx="28" cy="40" r="30" fill="#16a34a"/>
    <circle cx="12" cy="34" r="18" fill="#22c55e"/>
    <circle cx="44" cy="36" r="16" fill="#15803d"/>
  </g>
  <g transform="translate(620, 185)">
    <ellipse cx="24" cy="82" rx="20" ry="6" fill="#14532d" opacity="0.3"/>
    <rect x="18" y="48" width="12" height="34" fill="#78350f"/>
    <circle cx="24" cy="38" r="26" fill="#15803d"/>
    <circle cx="10" cy="32" r="15" fill="#22c55e"/>
  </g>
  <g transform="translate(300, 355)">
    <ellipse cx="55" cy="18" rx="50" ry="10" fill="#f97316" opacity="0.35"/>
    <path d="M20 18 C30 0 45 -4 58 6 C72 16 78 18 70 18 Z" fill="#ef4444"/>
    <rect x="48" y="4" width="10" height="14" rx="2" fill="#fdba74"/>
  </g>
  <g transform="translate(420, 368)">
    <ellipse cx="40" cy="14" rx="36" ry="8" fill="#0f766e" opacity="0.25"/>
    <path d="M10 14 C18 2 30 -2 42 6 C54 14 58 14 52 14 Z" fill="#f59e0b"/>
    <rect x="34" y="0" width="8" height="12" rx="2" fill="#fcd34d"/>
  </g>
  <g opacity="0.55">
    <circle cx="180" cy="300" r="6" fill="#fff"/>
    <circle cx="220" cy="290" r="4" fill="#fff"/>
    <circle cx="560" cy="295" r="5" fill="#fff"/>
    <circle cx="600" cy="305" r="4" fill="#fff"/>
  </g>
  <text x="400" y="470" text-anchor="middle" fill="#0f766e" font-family="system-ui,sans-serif" font-size="22" font-weight="600">Плаж Макри</text>
</svg>
