<svg xmlns="http://www.w3.org/2000/svg" viewBox="0 0 800 500" role="img" aria-label="Макри · втора снимка">
  <defs>
    <linearGradient id="sunsetSky" x1="0" y1="0" x2="0" y2="1">
      <stop offset="0%" stop-color="#7c3aed"/>
      <stop offset="35%" stop-color="#f97316"/>
      <stop offset="70%" stop-color="#fdba74"/>
      <stop offset="100%" stop-color="#fef3c7"/>
    </linearGradient>
    <linearGradient id="sunsetSea" x1="0" y1="0" x2="0" y2="1">
      <stop offset="0%" stop-color="#0f766e"/>
      <stop offset="100%" stop-color="#115e59"/>
    </linearGradient>
  </defs>
  <rect width="800" height="500" fill="url(#sunsetSky)"/>
  <circle cx="400" cy="280" r="72" fill="#fde047" opacity="0.85"/>
  <circle cx="400" cy="280" r="88" fill="#fb923c" opacity="0.25"/>
  <path d="M0 310 Q180 295 360 305 T800 300 L800 390 L0 390 Z" fill="url(#sunsetSea)"/>
  <path d="M0 390 Q200 370 400 382 T800 375 L800 500 L0 500 Z" fill="#d97706"/>
  <path d="M0 390 Q200 378 400 388 T800 382" fill="none" stroke="#fcd34d" stroke-width="3" opacity="0.5"/>
  <g transform="translate(120, 250)">
    <rect x="0" y="60" width="140" height="10" fill="#78350f" opacity="0.5"/>
    <rect x="10" y="20" width="120" height="40" rx="4" fill="#fff7ed" opacity="0.9"/>
    <rect x="20" y="30" width="22" height="18" rx="2" fill="#fbbf24" opacity="0.7"/>
    <rect x="58" y="30" width="22" height="18" rx="2" fill="#fbbf24" opacity="0.7"/>
    <rect x="96" y="30" width="22" height="18" rx="2" fill="#fbbf24" opacity="0.7"/>
    <line x1="0" y1="20" x2="140" y2="20" stroke="#92400e" stroke-width="4"/>
    <line x1="20" y1="20" x2="20" y2="60" stroke="#92400e" stroke-width="3"/>
    <line x1="120" y1="20" x2="120" y2="60" stroke="#92400e" stroke-width="3"/>
  </g>
  <g transform="translate(560, 265)">
    <rect x="0" y="45" width="110" height="8" fill="#78350f" opacity="0.45"/>
    <rect x="8" y="10" width="94" height="35" rx="3" fill="#fff" opacity="0.85"/>
    <rect x="18" y="18" width="18" height="16" rx="2" fill="#fb923c" opacity="0.65"/>
    <rect x="46" y="18" width="18" height="16" rx="2" fill="#fb923c" opacity="0.65"/>
    <rect x="74" y="18" width="18" height="16" rx="2" fill="#fb923c" opacity="0.65"/>
    <line x1="0" y1="10" x2="110" y2="10" stroke="#7c2d12" stroke-width="3"/>
  </g>
  <g opacity="0.8">
    <path d="M300 388 C320 372 340 372 360 388" fill="none" stroke="#fef08a" stroke-width="2"/>
    <path d="M420 386 C445 368 470 368 495 386" fill="none" stroke="#fef08a" stroke-width="2"/>
  </g>
  <text x="400" y="470" text-anchor="middle" fill="#fff7ed" font-family="system-ui,sans-serif" font-size="22" font-weight="600">Макри · втора снимка</text>
</svg>
