<svg xmlns="http://www.w3.org/2000/svg" viewBox="0 0 800 500" role="img" aria-label="Макри · основна снимка">
  <defs>
    <linearGradient id="sky" x1="0" y1="0" x2="0" y2="1">
      <stop offset="0%" stop-color="#7dd3fc"/>
      <stop offset="55%" stop-color="#bae6fd"/>
      <stop offset="100%" stop-color="#fef3c7"/>
    </linearGradient>
    <linearGradient id="sea" x1="0" y1="0" x2="1" y2="0">
      <stop offset="0%" stop-color="#0e7490"/>
      <stop offset="100%" stop-color="#14b8a6"/>
    </linearGradient>
    <linearGradient id="sand" x1="0" y1="0" x2="0" y2="1">
      <stop offset="0%" stop-color="#fde68a"/>
      <stop offset="100%" stop-color="#f59e0b"/>
    </linearGradient>
  </defs>
  <rect width="800" height="500" fill="url(#sky)"/>
  <circle cx="620" cy="90" r="48" fill="#fde047" opacity="0.95"/>
  <ellipse cx="120" cy="110" rx="90" ry="28" fill="#fff" opacity="0.75"/>
  <ellipse cx="280" cy="95" rx="70" ry="22" fill="#fff" opacity="0.6"/>
  <path d="M0 300 Q200 270 400 290 T800 285 L800 360 L0 360 Z" fill="url(#sea)"/>
  <path d="M0 360 Q220 330 420 345 T800 335 L800 500 L0 500 Z" fill="url(#sand)"/>
  <g transform="translate(90, 210)">
    <ellipse cx="35" cy="95" rx="28" ry="10" fill="#166534" opacity="0.35"/>
    <rect x="0" y="35" width="70" height="60" rx="4" fill="#fef08a"/>
    <path d="M0 35 L35 8 L70 35 Z" fill="#dc2626"/>
    <rect x="12" y="52" width="14" height="18" rx="2" fill="#7c2d12" opacity="0.5"/>
    <rect x="44" y="52" width="14" height="18" rx="2" fill="#7c2d12" opacity="0.5"/>
    <rect x="28" y="68" width="14" height="27" rx="2" fill="#92400e"/>
  </g>
  <g transform="translate(170, 185)">
    <ellipse cx="42" cy="118" rx="34" ry="12" fill="#166534" opacity="0.35"/>
    <rect x="0" y="45" width="84" height="72" rx="5" fill="#fff7ed"/>
    <path d="M0 45 L42 12 L84 45 Z" fill="#b45309"/>
    <rect x="14" y="62" width="18" height="22" rx="2" fill="#38bdf8" opacity="0.7"/>
    <rect x="52" y="62" width="18" height="22" rx="2" fill="#38bdf8" opacity="0.7"/>
    <rect x="33" y="82" width="18" height="35" rx="2" fill="#78350f"/>
    <rect x="8" y="88" width="68" height="8" rx="2" fill="#d97706" opacity="0.5"/>
  </g>
  <g transform="translate(255, 200)">
    <ellipse cx="38" cy="102" rx="30" ry="10" fill="#166534" opacity="0.35"/>
    <rect x="0" y="38" width="76" height="64" rx="4" fill="#fff"/>
    <path d="M0 38 L38 10 L76 38 Z" fill="#ea580c"/>
    <rect x="12" y="55" width="16" height="20" rx="2" fill="#0ea5e9" opacity="0.65"/>
    <rect x="48" y="55" width="16" height="20" rx="2" fill="#0ea5e9" opacity="0.65"/>
    <rect x="30" y="72" width="16" height="30" rx="2" fill="#7c2d12"/>
  </g>
  <g opacity="0.9">
    <ellipse cx="520" cy="318" rx="18" ry="6" fill="#0f766e" opacity="0.4"/>
    <path d="M500 318 C505 300 515 292 528 300 C540 308 545 318 540 318 Z" fill="#f97316"/>
    <rect x="512" y="300" width="8" height="12" rx="2" fill="#fdba74"/>
  </g>
  <g transform="translate(560, 120)">
    <ellipse cx="22" cy="78" rx="18" ry="6" fill="#14532d" opacity="0.35"/>
    <rect x="14" y="42" width="16" height="36" fill="#92400e"/>
    <circle cx="22" cy="34" r="28" fill="#16a34a"/>
    <circle cx="8" cy="28" r="18" fill="#22c55e"/>
    <circle cx="36" cy="30" r="16" fill="#15803d"/>
  </g>
  <g transform="translate(640, 140)">
    <ellipse cx="20" cy="72" rx="16" ry="5" fill="#14532d" opacity="0.35"/>
    <rect x="13" y="38" width="14" height="34" fill="#78350f"/>
    <circle cx="20" cy="30" r="24" fill="#15803d"/>
    <circle cx="6" cy="26" r="14" fill="#22c55e"/>
  </g>
  <text x="400" y="470" text-anchor="middle" fill="#134e4a" font-family="system-ui,sans-serif" font-size="22" font-weight="600">Макри · основна снимка</text>
</svg>
