<svg xmlns="http://www.w3.org/2000/svg" viewBox="0 0 800 500" role="img" aria-label="Одрин">
  <defs>
    <linearGradient id="sky" x1="0" y1="0" x2="1" y2="1">
      <stop offset="0%" stop-color="#b91c1c"/>
      <stop offset="55%" stop-color="#f97316"/>
      <stop offset="100%" stop-color="#f97316" stop-opacity="0.85"/>
    </linearGradient>
    <linearGradient id="haze" x1="0" y1="0.35" x2="0" y2="1">
      <stop offset="0%" stop-color="#ffffff" stop-opacity="0"/>
      <stop offset="45%" stop-color="#ffffff" stop-opacity="0.06"/>
      <stop offset="100%" stop-color="#0f172a" stop-opacity="0.22"/>
    </linearGradient>
    <linearGradient id="sea" x1="0" y1="0" x2="0" y2="1">
      <stop offset="0%" stop-color="#0c4a6e" stop-opacity="0.35"/>
      <stop offset="100%" stop-color="#082f49" stop-opacity="0.65"/>
    </linearGradient>
    <linearGradient id="sand" x1="0" y1="0" x2="0" y2="1">
      <stop offset="0%" stop-color="#fef3c7" stop-opacity="0.25"/>
      <stop offset="100%" stop-color="#d97706" stop-opacity="0.15"/>
    </linearGradient>
    <linearGradient id="scrim" x1="0" y1="0.55" x2="0" y2="1">
      <stop offset="0%" stop-color="#000000" stop-opacity="0"/>
      <stop offset="100%" stop-color="#000000" stop-opacity="0.45"/>
    </linearGradient>
    <radialGradient id="sun" cx="0.78" cy="0.18" r="0.28">
      <stop offset="0%" stop-color="#fff7ed" stop-opacity="0.55"/>
      <stop offset="55%" stop-color="#fde68a" stop-opacity="0.18"/>
      <stop offset="100%" stop-color="#fde68a" stop-opacity="0"/>
    </radialGradient>
  </defs>
  <rect width="800" height="500" fill="url(#sky)"/>
  <rect width="800" height="500" fill="url(#sun)"/>
  <rect width="800" height="500" fill="url(#haze)"/>
  <ellipse cx="140" cy="95" rx="95" ry="22" fill="#ffffff" opacity="0.1"/>
  <ellipse cx="210" cy="88" rx="60" ry="16" fill="#ffffff" opacity="0.08"/>
  <ellipse cx="520" cy="72" rx="110" ry="20" fill="#ffffff" opacity="0.09"/>
  <ellipse cx="640" cy="80" rx="70" ry="15" fill="#ffffff" opacity="0.07"/>
  <path d="M0 315 C180 280 360 270 540 290 S740 278 800 305 L800 500 L0 500 Z" fill="#0f172a" opacity="0.14"/>
  <path d="M0 315 C150 300 280 292 360 288 C390 255 410 228 430 205 C450 228 470 255 490 285 C540 278 590 282 640 292 C670 268 690 248 705 228 C722 250 738 275 755 298 C770 295 785 302 800 308 L800 315 Z" fill="#0f172a" opacity="0.48"/>
  <path d="M430 205 C448 168 465 142 480 118 C495 145 508 172 518 200 C500 192 478 192 460 200 Z" fill="#0f172a" opacity="0.54"/>
  <path d="M360 288 L352 248 L358 218 L366 248 Z M640 292 L632 250 L640 218 L648 250 Z" fill="#0f172a" opacity="0.5"/>
  <rect width="800" height="500" fill="url(#scrim)"/>
  <text x="400" y="462" text-anchor="middle" fill="#ffffff" font-family="system-ui,sans-serif" font-size="34" font-weight="600" letter-spacing="0.02em">Одрин</text>
</svg>