<svg xmlns="http://www.w3.org/2000/svg" viewBox="0 0 800 500" role="img" aria-label="Гърция · втора снимка">
  <defs>
    <linearGradient id="sky" x1="0" y1="0" x2="0" y2="1">
      <stop offset="0%" stop-color="#7dd3fc"/>
      <stop offset="100%" stop-color="#fef3c7"/>
    </linearGradient>
    <linearGradient id="sea" x1="0" y1="0" x2="0" y2="1">
      <stop offset="0%" stop-color="#0284c7"/>
      <stop offset="100%" stop-color="#0c4a6e"/>
    </linearGradient>
  </defs>
  <rect width="800" height="500" fill="url(#sky)"/>
  <path d="M0 360 L800 360 L800 500 L0 500 Z" fill="url(#sea)"/>
  <ellipse cx="400" cy="100" rx="60" ry="20" fill="#fff" opacity="0.65"/>
  <g transform="translate(300, 120)">
    <rect x="85" y="80" width="10" height="160" fill="#d6d3d1"/>
    <rect x="75" y="70" width="30" height="14" rx="2" fill="#a8a29e"/>
    <path d="M90 70 L90 20 L130 55 L90 70 Z" fill="#f5f5f4"/>
    <path d="M90 70 L90 35 L55 55 L90 70 Z" fill="#e7e5e4"/>
    <path d="M90 70 L90 35 L125 55 L90 70 Z" fill="#fafaf9"/>
    <rect x="82" y="235" width="16" height="8" fill="#78716c"/>
  </g>
  <g transform="translate(120, 220)">
    <rect x="0" y="50" width="70" height="55" rx="3" fill="#fff"/>
    <path d="M0 50 L35 15 L70 50 Z" fill="#1d4ed8"/>
    <rect x="12" y="62" width="16" height="20" fill="#38bdf8" opacity="0.5"/>
    <rect x="42" y="62" width="16" height="20" fill="#38bdf8" opacity="0.5"/>
    <rect x="28" y="78" width="14" height="27" fill="#fff"/>
    <rect x="0" y="105" width="70" height="20" fill="#e7e5e4"/>
  </g>
  <g transform="translate(520, 230)">
    <rect x="0" y="45" width="65" height="50" rx="3" fill="#f8fafc"/>
    <path d="M0 45 L32 12 L65 45 Z" fill="#2563eb"/>
    <rect x="10" y="56" width="14" height="18" fill="#38bdf8" opacity="0.45"/>
    <rect x="40" y="56" width="14" height="18" fill="#38bdf8" opacity="0.45"/>
    <rect x="0" y="95" width="65" height="18" fill="#e7e5e4"/>
  </g>
  <g transform="translate(640, 250)">
    <rect x="0" y="40" width="55" height="45" rx="2" fill="#fff"/>
    <path d="M0 40 L27 10 L55 40 Z" fill="#1d4ed8"/>
    <rect x="8" y="50" width="12" height="16" fill="#38bdf8" opacity="0.4"/>
    <rect x="35" y="50" width="12" height="16" fill="#38bdf8" opacity="0.4"/>
  </g>
  <circle cx="700" cy="70" r="38" fill="#fde047" opacity="0.9"/>
  <text x="400" y="470" text-anchor="middle" fill="#0c4a6e" font-family="system-ui,sans-serif" font-size="22" font-weight="600">Гърция · втора снимка</text>
</svg>
