<svg xmlns="http://www.w3.org/2000/svg" viewBox="0 0 800 500" role="img" aria-label="Алпи · втора снимка">
  <defs>
    <linearGradient id="sky" x1="0" y1="0" x2="0" y2="1">
      <stop offset="0%" stop-color="#7dd3fc"/>
      <stop offset="100%" stop-color="#fef3c7"/>
    </linearGradient>
    <linearGradient id="meadow" x1="0" y1="0" x2="0" y2="1">
      <stop offset="0%" stop-color="#86efac"/>
      <stop offset="100%" stop-color="#15803d"/>
    </linearGradient>
  </defs>
  <rect width="800" height="500" fill="url(#sky)"/>
  <path d="M0 380 L800 380 L800 500 L0 500 Z" fill="url(#meadow)"/>
  <path d="M0 380 L100 250 L200 310 L300 180 L400 260 L500 140 L600 220 L700 160 L800 200 L800 380 L0 380 Z" fill="#94a3b8"/>
  <path d="M300 180 L400 260 L500 140 L400 260 Z" fill="#f8fafc"/>
  <path d="M500 140 L600 220 L700 160 L600 220 Z" fill="#e2e8f0"/>
  <path d="M100 250 L200 310 L300 180 L200 310 Z" fill="#cbd5e1"/>
  <g transform="translate(350, 80)">
    <line x1="50" y1="200" x2="50" y2="0" stroke="#64748b" stroke-width="4"/>
    <rect x="20" y="0" width="60" height="18" rx="4" fill="#475569"/>
    <rect x="5" y="18" width="90" height="12" rx="3" fill="#94a3b8"/>
    <line x1="5" y1="30" x2="5" y2="200" stroke="#64748b" stroke-width="3"/>
    <line x1="95" y1="30" x2="95" y2="200" stroke="#64748b" stroke-width="3"/>
    <rect x="35" y="60" width="30" height="22" rx="3" fill="#f97316" opacity="0.85"/>
    <rect x="38" y="55" width="24" height="8" rx="2" fill="#ea580c"/>
  </g>
  <g transform="translate(120, 320)">
    <ellipse cx="20" cy="40" rx="18" ry="6" fill="#14532d" opacity="0.35"/>
    <circle cx="20" cy="22" r="20" fill="#22c55e"/>
    <rect x="17" y="30" width="6" height="16" fill="#78350f"/>
  </g>
  <g transform="translate(620, 330)">
    <ellipse cx="18" cy="35" rx="16" ry="5" fill="#14532d" opacity="0.35"/>
    <circle cx="18" cy="18" r="16" fill="#16a34a"/>
    <rect x="15" y="26" width="6" height="14" fill="#92400e"/>
  </g>
  <circle cx="680" cy="70" r="35" fill="#fde047" opacity="0.9"/>
  <text x="400" y="470" text-anchor="middle" fill="#14532d" font-family="system-ui,sans-serif" font-size="22" font-weight="600">Алпи · втора снимка</text>
</svg>
