<svg xmlns="http://www.w3.org/2000/svg" viewBox="0 0 800 500" role="img" aria-label="Алпи · основна снимка">
  <defs>
    <linearGradient id="sky" x1="0" y1="0" x2="0" y2="1">
      <stop offset="0%" stop-color="#38bdf8"/>
      <stop offset="100%" stop-color="#e0f2fe"/>
    </linearGradient>
    <linearGradient id="valley" x1="0" y1="0" x2="0" y2="1">
      <stop offset="0%" stop-color="#4ade80"/>
      <stop offset="100%" stop-color="#166534"/>
    </linearGradient>
  </defs>
  <rect width="800" height="500" fill="url(#sky)"/>
  <circle cx="120" cy="90" r="38" fill="#fde047" opacity="0.95"/>
  <ellipse cx="600" cy="100" rx="80" ry="24" fill="#fff" opacity="0.65"/>
  <path d="M0 420 L800 420 L800 500 L0 500 Z" fill="url(#valley)"/>
  <path d="M0 420 L120 280 L240 350 L360 200 L480 300 L600 150 L720 280 L800 220 L800 420 L0 420 Z" fill="#64748b"/>
  <path d="M360 200 L480 300 L600 150 L720 280 L600 150 L480 300 Z" fill="#94a3b8" opacity="0.6"/>
  <path d="M120 280 L240 350 L360 200 L240 350 Z" fill="#78716c" opacity="0.5"/>
  <path d="M360 200 L420 160 L480 300 L420 160 Z" fill="#f8fafc"/>
  <path d="M600 150 L660 110 L720 280 L660 110 Z" fill="#f1f5f9"/>
  <path d="M420 160 L480 300 L540 220 L480 300 Z" fill="#e2e8f0"/>
  <path d="M660 110 L720 280 L780 200 L720 280 Z" fill="#f8fafc"/>
  <g transform="translate(340, 300)">
    <rect x="30" y="50" width="40" height="35" rx="3" fill="#78350f"/>
    <path d="M30 50 L50 25 L70 50 Z" fill="#92400e"/>
    <rect x="42" y="62" width="16" height="23" fill="#57534e"/>
    <rect x="0" y="85" width="100" height="8" fill="#365314" opacity="0.5"/>
  </g>
  <text x="400" y="470" text-anchor="middle" fill="#1e3a5f" font-family="system-ui,sans-serif" font-size="22" font-weight="600">Алпи · основна снимка</text>
</svg>
