<svg xmlns="http://www.w3.org/2000/svg" viewBox="0 0 800 500" role="img" aria-label="Адриатика · втора снимка">
  <defs>
    <linearGradient id="sky" x1="0" y1="0" x2="0" y2="1">
      <stop offset="0%" stop-color="#7dd3fc"/>
      <stop offset="100%" stop-color="#e0f2fe"/>
    </linearGradient>
    <linearGradient id="sea" x1="0" y1="0" x2="1" y2="0">
      <stop offset="0%" stop-color="#0e7490"/>
      <stop offset="100%" stop-color="#06b6d4"/>
    </linearGradient>
  </defs>
  <rect width="800" height="500" fill="url(#sky)"/>
  <ellipse cx="200" cy="110" rx="70" ry="22" fill="#fff" opacity="0.7"/>
  <path d="M0 320 Q200 300 400 315 T800 305 L800 500 L0 500 Z" fill="url(#sea)"/>
  <ellipse cx="150" cy="380" rx="40" ry="10" fill="#0f766e" opacity="0.25"/>
  <ellipse cx="620" cy="370" rx="35" ry="9" fill="#0f766e" opacity="0.25"/>
  <g transform="translate(280, 200)">
    <path d="M0 120 L240 120 L240 80 Q120 40 0 80 Z" fill="#f1f5f9"/>
    <rect x="20" y="60" width="200" height="25" fill="#e2e8f0"/>
    <rect x="40" y="40" width="160" height="22" fill="#cbd5e1"/>
    <rect x="60" y="22" width="120" height="20" fill="#94a3b8"/>
    <rect x="80" y="8" width="80" height="16" fill="#64748b"/>
    <rect x="95" y="85" width="50" height="35" fill="#1e293b"/>
    <rect x="100" y="75" width="40" height="12" fill="#334155"/>
    <line x1="0" y1="120" x2="240" y2="120" stroke="#475569" stroke-width="3"/>
  </g>
  <g transform="translate(100, 280)">
    <ellipse cx="30" cy="25" rx="28" ry="10" fill="#166534" opacity="0.35"/>
    <circle cx="30" cy="10" r="22" fill="#22c55e"/>
    <rect x="26" y="18" width="8" height="20" fill="#78350f"/>
  </g>
  <g transform="translate(600, 270)">
    <ellipse cx="25" cy="28" rx="24" ry="9" fill="#166534" opacity="0.35"/>
    <circle cx="25" cy="12" r="18" fill="#16a34a"/>
    <rect x="22" y="20" width="6" height="18" fill="#92400e"/>
  </g>
  <circle cx="700" cy="75" r="36" fill="#fde047" opacity="0.9"/>
  <text x="400" y="470" text-anchor="middle" fill="#0c4a6e" font-family="system-ui,sans-serif" font-size="22" font-weight="600">Адриатика · втора снимка</text>
</svg>
