<svg xmlns="http://www.w3.org/2000/svg" viewBox="0 0 800 500" role="img" aria-label="Адриатика · основна снимка">
  <defs>
    <linearGradient id="sky" x1="0" y1="0" x2="0" y2="1">
      <stop offset="0%" stop-color="#38bdf8"/>
      <stop offset="100%" stop-color="#bae6fd"/>
    </linearGradient>
    <linearGradient id="sea" x1="0" y1="0" x2="0" y2="1">
      <stop offset="0%" stop-color="#0891b2"/>
      <stop offset="100%" stop-color="#155e75"/>
    </linearGradient>
  </defs>
  <rect width="800" height="500" fill="url(#sky)"/>
  <circle cx="650" cy="80" r="40" fill="#fde047" opacity="0.95"/>
  <path d="M0 370 L800 370 L800 500 L0 500 Z" fill="url(#sea)"/>
  <path d="M0 370 L800 370" fill="none" stroke="#67e8f9" stroke-width="2" opacity="0.35"/>
  <g transform="translate(200, 200)">
    <rect x="0" y="80" width="400" height="90" fill="#e7e5e4"/>
    <rect x="0" y="60" width="400" height="22" fill="#d6d3d1"/>
    <rect x="20" y="30" width="360" height="32" fill="#a8a29e"/>
    <rect x="40" y="5" width="320" height="28" fill="#78716c"/>
    <rect x="30" y="95" width="35" height="40" rx="2" fill="#fef08a"/>
    <path d="M30 95 L47 72 L65 95 Z" fill="#dc2626"/>
    <rect x="80" y="90" width="32" height="45" rx="2" fill="#fff7ed"/>
    <path d="M80 90 L96 68 L112 90 Z" fill="#b45309"/>
    <rect x="130" y="95" width="35" height="40" rx="2" fill="#fef08a"/>
    <path d="M130 95 L147 72 L165 95 Z" fill="#dc2626"/>
    <rect x="180" y="88" width="32" height="47" rx="2" fill="#fff"/>
    <path d="M180 88 L196 65 L212 88 Z" fill="#ea580c"/>
    <rect x="230" y="95" width="35" height="40" rx="2" fill="#fef08a"/>
    <path d="M230 95 L247 72 L265 95 Z" fill="#dc2626"/>
    <rect x="280" y="90" width="32" height="45" rx="2" fill="#fff7ed"/>
    <path d="M280 90 L296 68 L312 90 Z" fill="#b45309"/>
    <rect x="330" y="95" width="35" height="40" rx="2" fill="#fef08a"/>
    <path d="M330 95 L347 72 L365 95 Z" fill="#dc2626"/>
  </g>
  <g transform="translate(80, 310)">
    <rect x="0" y="0" width="640" height="10" rx="2" fill="#94a3b8"/>
    <path d="M0 10 L30 50 L60 10" fill="none" stroke="#64748b" stroke-width="3"/>
    <path d="M120 10 L150 50 L180 10" fill="none" stroke="#64748b" stroke-width="3"/>
    <path d="M280 10 L310 50 L340 10" fill="none" stroke="#64748b" stroke-width="3"/>
    <path d="M440 10 L470 50 L500 10" fill="none" stroke="#64748b" stroke-width="3"/>
    <path d="M580 10 L610 50 L640 10" fill="none" stroke="#64748b" stroke-width="3"/>
  </g>
  <text x="400" y="470" text-anchor="middle" fill="#134e4a" font-family="system-ui,sans-serif" font-size="22" font-weight="600">Адриатика · основна снимка</text>
</svg>
