<svg xmlns="http://www.w3.org/2000/svg" viewBox="0 0 800 500" role="img" aria-label="Прага · основна снимка">
  <defs>
    <linearGradient id="sky" x1="0" y1="0" x2="0" y2="1">
      <stop offset="0%" stop-color="#fca5a5"/>
      <stop offset="50%" stop-color="#fdba74"/>
      <stop offset="100%" stop-color="#fef3c7"/>
    </linearGradient>
    <linearGradient id="river" x1="0" y1="0" x2="0" y2="1">
      <stop offset="0%" stop-color="#38bdf8"/>
      <stop offset="100%" stop-color="#0284c7"/>
    </linearGradient>
  </defs>
  <rect width="800" height="500" fill="url(#sky)"/>
  <path d="M0 380 L800 380 L800 500 L0 500 Z" fill="url(#river)"/>
  <path d="M0 380 L800 380" fill="none" stroke="#7dd3fc" stroke-width="2" opacity="0.4"/>
  <g transform="translate(80, 120)">
    <rect x="200" y="80" width="30" height="180" fill="#d6d3d1"/>
    <path d="M200 80 L215 40 L230 80 Z" fill="#1e293b"/>
    <rect x="280" y="50" width="35" height="210" fill="#e7e5e4"/>
    <path d="M280 50 L297 5 L315 50 Z" fill="#0f172a"/>
    <rect x="370" y="70" width="28" height="190" fill="#d6d3d1"/>
    <path d="M370 70 L384 30 L398 70 Z" fill="#1e293b"/>
    <rect x="440" y="40" width="38" height="220" fill="#f5f5f4"/>
    <path d="M440 40 L459 0 L478 40 Z" fill="#0f172a"/>
    <rect x="520" y="65" width="32" height="195" fill="#e7e5e4"/>
    <path d="M520 65 L536 25 L552 65 Z" fill="#1e293b"/>
    <rect x="180" y="260" width="400" height="20" fill="#a8a29e"/>
  </g>
  <g transform="translate(0, 300)">
    <path d="M0 80 L60 80 L60 20 L120 20 L120 80 L180 80 L180 20 L240 20 L240 80 L300 80 L300 20 L360 20 L360 80 L420 80 L420 20 L480 20 L480 80 L540 80 L540 20 L600 20 L600 80 L660 80 L660 20 L720 20 L720 80 L800 80 L800 100 L0 100 Z" fill="#78716c"/>
    <rect x="0" y="100" width="800" height="12" fill="#57534e"/>
    <ellipse cx="90" cy="115" rx="12" ry="5" fill="#0f766e" opacity="0.4"/>
    <ellipse cx="270" cy="118" rx="10" ry="4" fill="#0f766e" opacity="0.35"/>
    <ellipse cx="450" cy="114" rx="11" ry="5" fill="#0f766e" opacity="0.4"/>
    <ellipse cx="630" cy="117" rx="10" ry="4" fill="#0f766e" opacity="0.35"/>
    <rect x="55" y="55" width="10" height="25" fill="#57534e"/>
    <rect x="175" y="55" width="10" height="25" fill="#57534e"/>
    <rect x="295" y="55" width="10" height="25" fill="#57534e"/>
    <rect x="415" y="55" width="10" height="25" fill="#57534e"/>
    <rect x="535" y="55" width="10" height="25" fill="#57534e"/>
    <rect x="655" y="55" width="10" height="25" fill="#57534e"/>
    <path d="M350 55 L370 20 L390 55" fill="none" stroke="#1e293b" stroke-width="3"/>
    <circle cx="370" cy="18" r="6" fill="#1e293b"/>
  </g>
  <text x="400" y="470" text-anchor="middle" fill="#7c2d12" font-family="system-ui,sans-serif" font-size="22" font-weight="600">Прага · основна снимка</text>
</svg>
