<svg xmlns="http://www.w3.org/2000/svg" viewBox="0 0 800 500" role="img" aria-label="Археологически музей">
  <defs>
    <linearGradient id="sky" x1="0" y1="0" x2="1" y2="1">
      <stop offset="0%" stop-color="#1e40af"/>
      <stop offset="55%" stop-color="#38bdf8"/>
      <stop offset="100%" stop-color="#38bdf8" stop-opacity="0.85"/>
    </linearGradient>
    <linearGradient id="haze" x1="0" y1="0.35" x2="0" y2="1">
      <stop offset="0%" stop-color="#ffffff" stop-opacity="0"/>
      <stop offset="45%" stop-color="#ffffff" stop-opacity="0.06"/>
      <stop offset="100%" stop-color="#0f172a" stop-opacity="0.22"/>
    </linearGradient>
    <linearGradient id="sea" x1="0" y1="0" x2="0" y2="1">
      <stop offset="0%" stop-color="#0c4a6e" stop-opacity="0.35"/>
      <stop offset="100%" stop-color="#082f49" stop-opacity="0.65"/>
    </linearGradient>
    <linearGradient id="sand" x1="0" y1="0" x2="0" y2="1">
      <stop offset="0%" stop-color="#fef3c7" stop-opacity="0.25"/>
      <stop offset="100%" stop-color="#d97706" stop-opacity="0.15"/>
    </linearGradient>
    <linearGradient id="scrim" x1="0" y1="0.55" x2="0" y2="1">
      <stop offset="0%" stop-color="#000000" stop-opacity="0"/>
      <stop offset="100%" stop-color="#000000" stop-opacity="0.45"/>
    </linearGradient>
    <radialGradient id="sun" cx="0.78" cy="0.18" r="0.28">
      <stop offset="0%" stop-color="#fff7ed" stop-opacity="0.55"/>
      <stop offset="55%" stop-color="#fde68a" stop-opacity="0.18"/>
      <stop offset="100%" stop-color="#fde68a" stop-opacity="0"/>
    </radialGradient>
  </defs>
  <rect width="800" height="500" fill="url(#sky)"/>
  <rect width="800" height="500" fill="url(#sun)"/>
  <rect width="800" height="500" fill="url(#haze)"/>
  <ellipse cx="140" cy="95" rx="95" ry="22" fill="#ffffff" opacity="0.1"/>
  <ellipse cx="210" cy="88" rx="60" ry="16" fill="#ffffff" opacity="0.08"/>
  <ellipse cx="520" cy="72" rx="110" ry="20" fill="#ffffff" opacity="0.09"/>
  <ellipse cx="640" cy="80" rx="70" ry="15" fill="#ffffff" opacity="0.07"/>
  <path d="M0 305 C200 275 400 268 600 288 S760 280 800 300 L800 500 L0 500 Z" fill="#0f172a" opacity="0.13"/>
  <ellipse cx="100" cy="319.75" rx="40.5" ry="24.750000000000004" fill="#0f172a" opacity="0.2"/>
  <rect x="97" y="331" width="6" height="15.749999999999998" fill="#0f172a" opacity="0.18"/>
  <ellipse cx="170" cy="316.6" rx="46.800000000000004" ry="28.6" fill="#0f172a" opacity="0.2"/>
  <rect x="167" y="329.6" width="6" height="18.2" fill="#0f172a" opacity="0.18"/>
  <ellipse cx="630" cy="318.4" rx="43.2" ry="26.400000000000002" fill="#0f172a" opacity="0.2"/>
  <rect x="627" y="330.4" width="6" height="16.799999999999997" fill="#0f172a" opacity="0.18"/>
  <ellipse cx="700" cy="322" rx="36" ry="22" fill="#0f172a" opacity="0.2"/>
  <rect x="697" y="332" width="6" height="14" fill="#0f172a" opacity="0.18"/>
  <path d="M220 340 L260 340 L270 290 L290 250 L310 230 L330 250 L350 290 L360 340 L440 340 L450 295 L470 255 L490 235 L510 255 L530 295 L540 340 L580 340 L580 355 L220 355 Z" fill="#0f172a" opacity="0.4"/>
  <path d="M180 355 C320 348 480 352 620 345" stroke="#0f172a" stroke-width="1" opacity="0.1" fill="none"/>
  <rect width="800" height="500" fill="url(#scrim)"/>
  <text x="400" y="468" text-anchor="middle" fill="#ffffff" font-family="system-ui,sans-serif" font-size="26" font-weight="600" letter-spacing="0.02em">Археологически музей</text>
</svg>