<svg xmlns="http://www.w3.org/2000/svg" viewBox="0 0 800 500" role="img" aria-label="Макри">
  <defs>
    <linearGradient id="sky" x1="0" y1="0" x2="1" y2="1">
      <stop offset="0%" stop-color="#0e7490"/>
      <stop offset="55%" stop-color="#fde68a"/>
      <stop offset="100%" stop-color="#fde68a" stop-opacity="0.85"/>
    </linearGradient>
    <linearGradient id="haze" x1="0" y1="0.35" x2="0" y2="1">
      <stop offset="0%" stop-color="#ffffff" stop-opacity="0"/>
      <stop offset="45%" stop-color="#ffffff" stop-opacity="0.06"/>
      <stop offset="100%" stop-color="#0f172a" stop-opacity="0.22"/>
    </linearGradient>
    <linearGradient id="sea" x1="0" y1="0" x2="0" y2="1">
      <stop offset="0%" stop-color="#0c4a6e" stop-opacity="0.35"/>
      <stop offset="100%" stop-color="#082f49" stop-opacity="0.65"/>
    </linearGradient>
    <linearGradient id="sand" x1="0" y1="0" x2="0" y2="1">
      <stop offset="0%" stop-color="#fef3c7" stop-opacity="0.25"/>
      <stop offset="100%" stop-color="#d97706" stop-opacity="0.15"/>
    </linearGradient>
    <linearGradient id="scrim" x1="0" y1="0.55" x2="0" y2="1">
      <stop offset="0%" stop-color="#000000" stop-opacity="0"/>
      <stop offset="100%" stop-color="#000000" stop-opacity="0.45"/>
    </linearGradient>
    <radialGradient id="sun" cx="0.78" cy="0.18" r="0.28">
      <stop offset="0%" stop-color="#fff7ed" stop-opacity="0.55"/>
      <stop offset="55%" stop-color="#fde68a" stop-opacity="0.18"/>
      <stop offset="100%" stop-color="#fde68a" stop-opacity="0"/>
    </radialGradient>
  </defs>
  <rect width="800" height="500" fill="url(#sky)"/>
  <rect width="800" height="500" fill="url(#sun)"/>
  <rect width="800" height="500" fill="url(#haze)"/>
  <ellipse cx="140" cy="95" rx="95" ry="22" fill="#ffffff" opacity="0.1"/>
  <ellipse cx="210" cy="88" rx="60" ry="16" fill="#ffffff" opacity="0.08"/>
  <ellipse cx="520" cy="72" rx="110" ry="20" fill="#ffffff" opacity="0.09"/>
  <ellipse cx="640" cy="80" rx="70" ry="15" fill="#ffffff" opacity="0.07"/>
  <rect x="0" y="320" width="800" height="180" fill="url(#sea)"/>
  <path d="M0 328 C120 316 240 330 400 324 S680 314 800 328" stroke="#e0f2fe" stroke-width="1.2" fill="none" opacity="0.22"/>
  <path d="M0 348 C160 336 320 354 480 342 S720 350 800 344" stroke="#e0f2fe" stroke-width="0.8" fill="none" opacity="0.14"/>
  <path d="M0 372 C200 362 400 378 600 366 S760 374 800 370" stroke="#bae6fd" stroke-width="0.6" fill="none" opacity="0.1"/>
  <path d="M0 358 C140 340 280 364 420 348 S700 362 800 352 L800 500 L0 500 Z" fill="url(#sand)"/>
  <path d="M0 305 C160 280 320 272 480 288 S680 278 800 300 L800 358 L0 358 Z" fill="#0f172a" opacity="0.13"/>
  <ellipse cx="120" cy="287.9" rx="34.2" ry="20.900000000000002" fill="#0f172a" opacity="0.2"/>
  <rect x="117" y="297.4" width="6" height="13.299999999999999" fill="#0f172a" opacity="0.18"/>
  <ellipse cx="180" cy="283.4" rx="43.2" ry="26.400000000000002" fill="#0f172a" opacity="0.2"/>
  <rect x="177" y="295.4" width="6" height="16.799999999999997" fill="#0f172a" opacity="0.18"/>
  <ellipse cx="240" cy="286.1" rx="37.800000000000004" ry="23.1" fill="#0f172a" opacity="0.2"/>
  <rect x="237" y="296.6" width="6" height="14.7" fill="#0f172a" opacity="0.18"/>
  <ellipse cx="580" cy="284.75" rx="40.5" ry="24.750000000000004" fill="#0f172a" opacity="0.2"/>
  <rect x="577" y="296" width="6" height="15.749999999999998" fill="#0f172a" opacity="0.18"/>
  <ellipse cx="640" cy="281.6" rx="46.800000000000004" ry="28.6" fill="#0f172a" opacity="0.2"/>
  <rect x="637" y="294.6" width="6" height="18.2" fill="#0f172a" opacity="0.18"/>
  <ellipse cx="700" cy="287" rx="36" ry="22" fill="#0f172a" opacity="0.2"/>
  <rect x="697" y="297" width="6" height="14" fill="#0f172a" opacity="0.18"/>
  <path d="M0 358 C250 345 500 352 750 342" stroke="#ffffff" stroke-width="0.6" opacity="0.12" fill="none"/>
  <rect width="800" height="500" fill="url(#scrim)"/>
  <text x="400" y="468" text-anchor="middle" fill="#ffffff" font-family="system-ui,sans-serif" font-size="26" font-weight="600" letter-spacing="0.02em">Макри</text>
</svg>