<svg xmlns="http://www.w3.org/2000/svg" viewBox="0 0 800 500" role="img" aria-label="Маронея">
  <defs>
    <linearGradient id="sky" x1="1" y1="0" x2="0" y2="1">
      <stop offset="0%" stop-color="#0e7490"/>
      <stop offset="55%" stop-color="#fde68a"/>
      <stop offset="100%" stop-color="#fde68a" stop-opacity="0.85"/>
    </linearGradient>
    <linearGradient id="haze" x1="0" y1="0.35" x2="0" y2="1">
      <stop offset="0%" stop-color="#ffffff" stop-opacity="0"/>
      <stop offset="45%" stop-color="#ffffff" stop-opacity="0.06"/>
      <stop offset="100%" stop-color="#0f172a" stop-opacity="0.22"/>
    </linearGradient>
    <linearGradient id="sea" x1="0" y1="0" x2="0" y2="1">
      <stop offset="0%" stop-color="#0c4a6e" stop-opacity="0.35"/>
      <stop offset="100%" stop-color="#082f49" stop-opacity="0.65"/>
    </linearGradient>
    <linearGradient id="sand" x1="0" y1="0" x2="0" y2="1">
      <stop offset="0%" stop-color="#fef3c7" stop-opacity="0.25"/>
      <stop offset="100%" stop-color="#d97706" stop-opacity="0.15"/>
    </linearGradient>
    <linearGradient id="scrim" x1="0" y1="0.55" x2="0" y2="1">
      <stop offset="0%" stop-color="#000000" stop-opacity="0"/>
      <stop offset="100%" stop-color="#000000" stop-opacity="0.45"/>
    </linearGradient>
    <radialGradient id="sun" cx="0.78" cy="0.18" r="0.28">
      <stop offset="0%" stop-color="#fff7ed" stop-opacity="0.55"/>
      <stop offset="55%" stop-color="#fde68a" stop-opacity="0.18"/>
      <stop offset="100%" stop-color="#fde68a" stop-opacity="0"/>
    </radialGradient>
  </defs>
  <rect width="800" height="500" fill="url(#sky)"/>
  <rect width="800" height="500" fill="url(#sun)"/>
  <rect width="800" height="500" fill="url(#haze)"/>
  <ellipse cx="140" cy="95" rx="95" ry="22" fill="#ffffff" opacity="0.1"/>
  <ellipse cx="210" cy="88" rx="60" ry="16" fill="#ffffff" opacity="0.08"/>
  <ellipse cx="520" cy="72" rx="110" ry="20" fill="#ffffff" opacity="0.09"/>
  <ellipse cx="640" cy="80" rx="70" ry="15" fill="#ffffff" opacity="0.07"/>
  <rect x="0" y="340" width="800" height="160" fill="url(#sea)"/>
  <path d="M0 348 C120 336 240 350 400 344 S680 334 800 348" stroke="#e0f2fe" stroke-width="1.2" fill="none" opacity="0.22"/>
  <path d="M0 368 C160 356 320 374 480 362 S720 370 800 364" stroke="#e0f2fe" stroke-width="0.8" fill="none" opacity="0.14"/>
  <path d="M0 392 C200 382 400 398 600 386 S760 394 800 390" stroke="#bae6fd" stroke-width="0.6" fill="none" opacity="0.1"/>
  <path d="M0 310 C180 275 360 265 540 285 S740 272 800 300 L800 340 L0 340 Z" fill="#0f172a" opacity="0.14"/>
  <path d="M0 340 C200 315 400 308 600 325 S760 318 800 338 L800 500 L0 500 Z" fill="#0f172a" opacity="0.18"/>
  <path d="M0 340 C150 328 280 320 380 325 C400 305 420 290 440 278 C455 295 468 312 480 328 C540 322 600 328 660 338 C700 325 750 335 800 345 L800 340 Z" fill="#0f172a" opacity="0.38"/>
  <path d="M420 278 C435 258 448 242 460 228 C472 245 480 262 488 278 C475 272 462 272 450 276 Z" fill="#0f172a" opacity="0.42"/>
  <ellipse cx="300" cy="328" rx="35" ry="8" fill="#0f172a" opacity="0.15"/>
  <ellipse cx="520" cy="332" rx="45" ry="10" fill="#0f172a" opacity="0.12"/>
  <rect width="800" height="500" fill="url(#scrim)"/>
  <text x="400" y="468" text-anchor="middle" fill="#ffffff" font-family="system-ui,sans-serif" font-size="26" font-weight="600" letter-spacing="0.02em">Маронея</text>
</svg>